<svg width="200" height="200" viewBox="0 0 200 200" xmlns="http://www.w3.org/2000/svg">
  <path d="M58.5843 0.700138C47.9442 1.2018 40.6784 2.90013 34.3258 5.39512C27.7525 7.95762 22.18 11.3951 16.6358 16.9593C11.0924 22.5234 7.67738 28.0992 5.13404 34.6842C2.67236 41.0492 1.00402 48.3217 0.534016 58.9675C0.0640135 69.6133 -0.0401536 73.0358 0.0123466 100.192C0.0640136 127.347 0.184014 130.751 0.69985 141.42C1.20819 152.057 2.89986 159.321 5.39571 165.675C7.96239 172.25 11.3957 177.82 16.9624 183.365C22.5283 188.911 28.1 192.318 34.7 194.865C41.06 197.324 48.3342 199 58.9785 199.465C69.6227 199.932 73.0485 200.04 100.197 199.988C127.345 199.936 130.764 199.815 141.429 199.31C152.096 198.804 159.321 197.1 165.677 194.615C172.252 192.044 177.826 188.615 183.367 183.048C188.909 177.48 192.322 171.9 194.863 165.311C197.327 158.951 199.002 151.678 199.463 141.041C199.93 130.367 200.04 126.96 199.988 99.8082C199.936 72.6558 199.813 69.2516 199.307 58.5875C198.802 47.9233 197.107 40.6817 194.613 34.3234C192.043 27.7492 188.613 22.1834 183.05 16.6334C177.486 11.0834 171.901 7.67345 165.316 5.13763C158.951 2.67513 151.681 0.997637 141.037 0.537638C130.393 0.0776396 126.967 -0.0415266 99.8087 0.0118065C72.6502 0.0634731 69.2502 0.180139 58.5843 0.700138ZM59.7526 181.475C50.0026 181.051 44.7084 179.431 41.18 178.075C36.5084 176.275 33.18 174.1 29.6642 170.617C26.1475 167.135 23.9883 163.796 22.1641 159.134C20.7941 155.606 19.1441 150.317 18.6883 140.567C18.1924 130.03 18.0883 126.866 18.0299 100.167C17.9716 73.4699 18.0741 70.3091 18.5358 59.7675C18.9524 50.0258 20.5824 44.7258 21.9358 41.1992C23.7358 36.5217 25.9041 33.1992 29.3942 29.6859C32.8842 26.1717 36.2142 24.0076 40.88 22.1834C44.4051 20.8076 49.6926 19.1718 59.4385 18.7076C69.9844 18.2076 73.1444 18.1076 99.8387 18.0493C126.533 17.9909 129.701 18.0909 140.251 18.5559C149.993 18.9793 155.296 20.5934 158.818 21.9559C163.491 23.7559 166.818 25.9176 170.331 29.4142C173.846 32.9092 176.012 36.2275 177.836 40.9034C179.213 44.4175 180.85 49.7033 181.31 59.4558C181.812 70.0016 181.926 73.1641 181.973 99.8557C182.022 126.547 181.927 129.717 181.465 140.256C181.04 150.006 179.423 155.301 178.065 158.834C176.265 163.504 174.096 166.834 170.603 170.345C167.111 173.858 163.786 176.021 159.117 177.845C155.597 179.22 150.303 180.86 140.566 181.324C130.019 181.82 126.859 181.924 100.155 181.982C73.4502 182.04 70.2985 181.932 59.7526 181.475ZM141.276 46.5533C141.279 48.9269 141.987 51.246 143.309 53.2173C144.631 55.1886 146.508 56.7235 148.703 57.628C150.898 58.5324 153.311 58.7657 155.638 58.2984C157.965 57.8311 160.102 56.6842 161.777 55.0026C163.452 53.3211 164.591 51.1806 165.05 48.8517C165.508 46.5228 165.266 44.1103 164.353 41.9192C163.44 39.7281 161.898 37.8569 159.922 36.5422C157.946 35.2275 155.624 34.5284 153.251 34.5334C150.069 34.54 147.02 35.8099 144.774 38.064C142.529 40.318 141.27 43.3716 141.276 46.5533ZM48.6542 100.1C48.7101 128.46 71.7427 151.397 100.096 151.344C128.451 151.29 151.405 128.26 151.351 99.8999C151.297 71.5399 128.26 48.5958 99.9012 48.6517C71.5427 48.7075 48.6009 71.7433 48.6542 100.1ZM66.6668 100.064C66.6538 93.4714 68.5961 87.0229 72.2479 81.5341C75.8998 76.0453 81.0973 71.7626 87.1831 69.2277C93.269 66.6927 99.9699 66.0193 106.438 67.2927C112.907 68.566 118.853 71.7289 123.524 76.3813C128.195 81.0337 131.381 86.9668 132.68 93.4302C133.979 99.8936 133.333 106.597 130.822 112.693C128.311 118.789 124.049 124.003 118.575 127.677C113.1 131.35 106.66 133.318 100.067 133.331C95.6894 133.341 91.3528 132.487 87.305 130.82C83.2572 129.153 79.5774 126.705 76.4759 123.616C73.3743 120.527 70.9116 116.857 69.2286 112.816C67.5455 108.775 66.675 104.442 66.6668 100.064Z" fill="currentColor"/>
</svg>
