<svg width="200" height="196" viewBox="0 0 200 196" xmlns="http://www.w3.org/2000/svg">
  <path d="M100 0C44.75 0 0 44.9936 0 100.488C0 144.896 28.65 182.554 68.375 195.826C73.375 196.773 75.2083 193.666 75.2083 190.995C75.2083 188.608 75.125 182.286 75.0833 173.912C47.2667 179.974 41.4 160.429 41.4 160.429C36.85 148.831 30.275 145.733 30.275 145.733C21.2167 139.503 30.975 139.628 30.975 139.628C41.0167 140.332 46.2917 149.979 46.2917 149.979C55.2083 165.345 69.7 160.907 75.4167 158.336C76.3167 151.838 78.8917 147.408 81.75 144.896C59.5417 142.383 36.2 133.741 36.2 95.2377C36.2 84.2677 40.075 75.3075 46.4917 68.2734C45.3667 65.736 41.9917 55.5197 47.3667 41.6775C47.3667 41.6775 55.7417 38.981 74.8667 51.9775C82.8667 49.7417 91.3667 48.6363 99.8667 48.586C108.367 48.6363 116.867 49.7417 124.867 51.9775C143.867 38.981 152.242 41.6775 152.242 41.6775C157.617 55.5197 154.242 65.736 153.242 68.2734C159.617 75.3075 163.492 84.2677 163.492 95.2377C163.492 133.842 140.117 142.342 117.867 144.812C121.367 147.827 124.617 153.99 124.617 163.402C124.617 176.851 124.492 187.653 124.492 190.919C124.492 193.557 126.242 196.697 131.367 195.692C171.375 182.512 200 144.829 200 100.488C200 44.9936 155.225 0 100 0Z" fill="currentColor"/>
</svg>
