<svg width="200" height="174" viewBox="0 0 200 174" xmlns="http://www.w3.org/2000/svg">
  <path d="M100.083 0C82.7333 0 68.8 0.165477 68.8917 0.388873C68.975 0.55435 83.125 25.2188 100.342 55.1621L131.675 109.555H163.008C180.35 109.555 194.283 109.389 194.192 109.166C194.15 109 179.958 84.3358 162.733 54.3926L131.4 0H100.083ZM60.4167 14.3138C50.2524 31.6951 40.169 49.1229 30.1667 66.5966L0 119.003L15.75 146.291L31.4583 173.57L61.625 121.155L91.775 68.7809L76.1083 41.5846C67.5 26.6337 60.4583 14.3635 60.4167 14.3138ZM79.2417 119.003L77.55 121.883C76.6 123.521 69.55 135.717 61.8833 149.079C57.2 157.289 52.4833 165.48 47.7333 173.653C47.65 173.868 74.7333 174 107.917 174H168.283L183.25 147.879C191.517 133.532 198.667 121.155 199.133 120.385L200 119.003H139.592H79.2417Z" fill="currentColor"/>
</svg>
